<svg width="32" height="33" viewBox="0 0 32 33" fill="none" xmlns="http://www.w3.org/2000/svg">
<path d="M30 10.5V7.5C30 6.70435 29.6839 5.94129 29.1213 5.37868C28.5587 4.81607 27.7956 4.5 27 4.5H23V3.5C23 3.23478 22.8946 2.98043 22.7071 2.79289C22.5196 2.60536 22.2652 2.5 22 2.5C21.7348 2.5 21.4804 2.60536 21.2929 2.79289C21.1054 2.98043 21 3.23478 21 3.5V4.5H11V3.5C11 3.23478 10.8946 2.98043 10.7071 2.79289C10.5196 2.60536 10.2652 2.5 10 2.5C9.73478 2.5 9.48043 2.60536 9.29289 2.79289C9.10536 2.98043 9 3.23478 9 3.5V4.5H5C4.20435 4.5 3.44129 4.81607 2.87868 5.37868C2.31607 5.94129 2 6.70435 2 7.5V10.5H30Z" fill="#333333"/>
<path d="M2 12.5V27.5C2 28.2956 2.31607 29.0587 2.87868 29.6213C3.44129 30.1839 4.20435 30.5 5 30.5H27C27.7956 30.5 28.5587 30.1839 29.1213 29.6213C29.6839 29.0587 30 28.2956 30 27.5V12.5H2ZM21.65 18.259L14.65 24.259C14.4587 24.4226 14.2127 24.508 13.9611 24.4982C13.7096 24.4883 13.471 24.384 13.293 24.206L10.293 21.206C10.1108 21.0174 10.01 20.7648 10.0123 20.5026C10.0146 20.2404 10.1198 19.9896 10.3052 19.8042C10.4906 19.6188 10.7414 19.5136 11.0036 19.5113C11.2658 19.509 11.5184 19.6098 11.707 19.792L14.053 22.138L20.353 16.738C20.4522 16.6486 20.5682 16.58 20.6943 16.5362C20.8204 16.4924 20.954 16.4743 21.0872 16.4829C21.2204 16.4915 21.3505 16.5267 21.4699 16.5864C21.5893 16.6462 21.6955 16.7292 21.7823 16.8306C21.8691 16.932 21.9347 17.0498 21.9752 17.1769C22.0158 17.3041 22.0305 17.4381 22.0184 17.5711C22.0064 17.704 21.9678 17.8332 21.9051 17.951C21.8423 18.0688 21.7566 18.1728 21.653 18.257L21.65 18.259Z" fill="#333333"/>
</svg>
