<svg width="32" height="33" viewBox="0 0 32 33" fill="none" xmlns="http://www.w3.org/2000/svg">
<path d="M22.5 4.5V5H23H27C27.663 5 28.2989 5.26339 28.7678 5.73223C29.2366 6.20107 29.5 6.83696 29.5 7.5V10H2.5V7.5C2.5 6.83696 2.76339 6.20107 3.23223 5.73223C3.70107 5.26339 4.33696 5 5 5H9H9.5V4.5V3.5C9.5 3.36739 9.55268 3.24021 9.64645 3.14645C9.74021 3.05268 9.86739 3 10 3C10.1326 3 10.2598 3.05268 10.3536 3.14645C10.4473 3.24021 10.5 3.36739 10.5 3.5V4.5V5H11H21H21.5V4.5V3.5C21.5 3.36739 21.5527 3.24021 21.6464 3.14645C21.7402 3.05268 21.8674 3 22 3C22.1326 3 22.2598 3.05268 22.3536 3.14645C22.4473 3.24021 22.5 3.36739 22.5 3.5V4.5Z" stroke="#333333"/>
<path d="M14.9749 24.639L14.9754 24.6386L21.9607 18.6513L21.9682 18.6451C22.1237 18.5189 22.2522 18.3628 22.3464 18.1861C22.4405 18.0094 22.4983 17.8156 22.5164 17.6162C22.5345 17.4168 22.5124 17.2158 22.4516 17.025C22.3907 16.8342 22.2923 16.6576 22.1621 16.5055C22.0319 16.3534 21.8726 16.2288 21.6936 16.1393C21.5145 16.0497 21.3193 15.9969 21.1195 15.9839C20.9197 15.971 20.7193 15.9982 20.5302 16.0639L20.6943 16.5362L20.5302 16.0639C20.3432 16.1289 20.171 16.2302 20.0234 16.362L14.0792 21.457L12.0606 19.4384L12.0606 19.4384L12.0544 19.4324C11.7715 19.1591 11.3925 19.0079 10.9993 19.0113C10.606 19.0148 10.2297 19.1725 9.95163 19.4506C9.67352 19.7287 9.51576 20.105 9.51235 20.4983C9.50893 20.8916 9.66012 21.2705 9.93336 21.5534L9.9333 21.5534L9.93945 21.5596L12.9394 24.5595C12.9394 24.5595 12.9394 24.5595 12.9394 24.5596C13.2064 24.8266 13.5643 24.9831 13.9416 24.9978C14.3189 25.0125 14.6879 24.8844 14.9749 24.639ZM2.5 27.5V13H29.5V27.5C29.5 28.163 29.2366 28.7989 28.7678 29.2678C28.2989 29.7366 27.663 30 27 30H5C4.33696 30 3.70107 29.7366 3.23223 29.2678C2.76339 28.7989 2.5 28.163 2.5 27.5Z" stroke="#333333"/>
</svg>
