<svg width="32" height="33" viewBox="0 0 32 33" fill="none" xmlns="http://www.w3.org/2000/svg">
<path d="M8.69922 9.50899C8.69922 5.48421 11.9744 2.20898 15.9992 2.20898C20.024 2.20898 23.2992 5.48421 23.2992 9.50899C23.2992 13.5338 20.024 16.809 15.9992 16.809C11.9744 16.809 8.69922 13.5338 8.69922 9.50899Z" stroke="#333333"/>
<path d="M17.7333 19.542C20.6025 19.542 23.3056 20.681 25.3485 22.7552L25.7047 22.4044L25.3485 22.7552C27.3818 24.8198 28.5 27.5421 28.5 30.4242C28.5 30.6267 28.3358 30.7909 28.1333 30.7909H3.86667C3.66418 30.7909 3.5 30.6267 3.5 30.4242C3.5 27.5421 4.61816 24.8198 6.65154 22.7552L6.2953 22.4044L6.65154 22.7552C8.69437 20.681 11.3976 19.542 14.2667 19.542H17.7333Z" stroke="#333333"/>
</svg>
