<svg width="32" height="33" viewBox="0 0 32 33" fill="none" xmlns="http://www.w3.org/2000/svg">
<path d="M15.9992 1.70898C11.6983 1.70898 8.19922 5.20806 8.19922 9.50899C8.19922 13.8099 11.6983 17.309 15.9992 17.309C20.3001 17.309 23.7992 13.8099 23.7992 9.50899C23.7992 5.20806 20.3001 1.70898 15.9992 1.70898Z" fill="#333333"/>
<path d="M25.7047 22.4044C23.5692 20.2361 20.7383 19.042 17.7333 19.042H14.2667C11.2618 19.042 8.43076 20.2361 6.2953 22.4044C4.17029 24.562 3 27.4101 3 30.4242C3 30.9028 3.38804 31.2909 3.86667 31.2909H28.1333C28.612 31.2909 29 30.9028 29 30.4242C29 27.4101 27.8297 24.562 25.7047 22.4044Z" fill="#333333"/>
</svg>
